<?xml version="1.0" encoding="UTF-8"?>
<!DOCTYPE svg PUBLIC "-//W3C//DTD SVG 1.1//EN" "http://www.w3.org/Graphics/SVG/1.1/DTD/svg11.dtd">
<!-- Creator: CorelDRAW X6 -->
<svg xmlns="http://www.w3.org/2000/svg" xml:space="preserve" width="2480px" height="3508px" version="1.1" shape-rendering="geometricPrecision" text-rendering="geometricPrecision" image-rendering="optimizeQuality" fill-rule="evenodd" clip-rule="evenodd"
viewBox="0 0 2480 3507"
 xmlns:xlink="http://www.w3.org/1999/xlink">
 <g id="Слой_x0020_1">
  <metadata id="CorelCorpID_0Corel-Layer"/>
  <g id="_763139136">
   <rect fill="#2B2A29" stroke="#2B2A29" stroke-width="2.3619" x="77" y="123" width="1695" height="986"/>
   <path fill="#00AE8F" d="M951 557c-5,8 -11,16 -16,24 -3,4 -6,9 -9,13 -7,9 -19,23 -31,23 -7,0 -13,-4 -16,-12 -4,-8 -6,-18 -6,-27 0,-11 2,-21 5,-30l-11 12c-6,8 -11,16 -17,24 -2,4 -5,7 -7,11l0 0c-8,10 -20,23 -32,23 -9,0 -15,-7 -15,-19 0,-8 2,-17 5,-25 -3,4 -6,9 -9,13l0 0c-6,8 -22,29 -31,29 -9,0 -14,-7 -14,-19 0,-15 14,-43 21,-55l0 0c5,-9 10,-19 15,-28 -4,5 -8,10 -12,15 -7,8 -13,17 -19,26l0 1 -1 1c-5,8 -11,16 -16,24 -2,3 -4,7 -7,10l0 0c-6,8 -18,25 -28,25 -10,0 -13,-11 -13,-22 0,-4 1,-8 2,-12 2,-6 5,-12 7,-18 4,-9 9,-18 13,-27 6,-12 12,-23 18,-34 -9,7 -17,21 -22,29 -10,18 -19,36 -29,54 -5,9 -16,30 -26,30 -13,0 -16,-14 -16,-28 0,-7 1,-14 4,-21 3,-6 7,-10 12,-10 7,0 10,7 10,16 0,7 -3,11 -8,14 -3,2 -5,5 -5,9 0,4 2,5 5,5 2,0 6,-5 8,-7 5,-7 10,-16 14,-24 7,-13 13,-26 20,-39 4,-7 8,-15 13,-22 10,-15 25,-33 41,-33 3,0 7,1 10,2l3 1 -2 3c-10,19 -20,37 -29,56 -7,13 -13,26 -19,40 -1,3 -6,14 -6,17 0,2 0,3 2,4 2,-1 10,-12 12,-15 10,-13 19,-27 28,-40l0 -1 1 -1c7,-9 14,-18 21,-27 10,-12 20,-24 30,-35l1 -1 22 0 -2 4c-10,19 -20,39 -31,58 -7,13 -14,27 -20,40 -1,3 -7,14 -7,16 0,2 0,3 2,3 2,0 8,-6 9,-8 7,-8 14,-17 20,-26 10,-14 19,-27 29,-41 3,-5 7,-11 10,-16 6,-10 11,-20 16,-30l1 -1 22 0 -2 4c-10,19 -20,39 -30,58 -7,13 -14,27 -20,40 -1,2 -6,14 -7,16 0,2 1,3 3,3 8,0 21,-17 26,-23 8,-12 17,-24 25,-36l4 -6 0 2c10,-12 20,-23 30,-35l0 0 0 0c9,-10 28,-28 41,-28 12,0 16,10 16,24 0,8 -2,16 -5,23 -3,6 -7,13 -12,13 -7,0 -11,-5 -11,-14 0,-9 4,-16 11,-19 2,-1 7,-3 7,-8 0,-4 -1,-5 -4,-5 -10,0 -27,30 -32,40 -8,14 -22,42 -22,59 0,7 1,14 8,14 9,0 20,-14 26,-22 8,-12 16,-24 24,-36l3 -5 0 2c7,-9 14,-18 21,-27 2,-3 5,-6 7,-9 1,-2 3,-3 4,-5 11,-12 26,-24 41,-24 6,0 11,3 15,8 5,5 7,13 7,21 0,21 -7,41 -17,58 0,1 1,2 2,2 2,0 5,-4 6,-5 5,-5 9,-11 13,-16 9,-13 18,-27 27,-40l0 0 0 0c7,-10 21,-27 33,-27 9,0 13,8 13,19 0,6 -4,17 -8,26 1,0 2,-1 3,-1 3,0 7,2 9,5 1,1 4,3 6,3 1,0 4,-3 5,-4 3,-4 6,-10 9,-15 5,-9 9,-19 14,-28l1 -1 22 0 -2 4c-10,18 -19,37 -29,56 -6,13 -13,25 -19,38 -1,2 -6,13 -6,16 0,3 0,7 4,7 5,0 20,-20 23,-25 8,-11 15,-22 23,-33l0 0 0 0c8,-10 16,-19 24,-29 8,-10 16,-22 22,-34l1 -1 22 0 -17 35c2,-1 4,-1 7,-1 14,0 17,15 17,30 0,4 0,8 -1,11l11 -17 0 2 53 -60 20 0 -26 52c1,-1 3,-3 4,-4 7,-8 13,-16 19,-24 8,-12 21,-27 35,-27 4,0 7,3 10,7 3,4 4,10 4,15 0,6 -1,11 -4,16 -3,4 -6,7 -10,7 -6,0 -8,-7 -8,-14 0,-4 2,-8 5,-10 1,-1 3,-3 3,-4 0,-2 0,-3 -2,-3 -4,0 -7,2 -10,6 -3,4 -6,9 -9,13l0 0c-3,4 -6,7 -9,11 -3,3 -5,6 -8,9 8,1 12,6 12,17 0,7 -7,20 -10,26 -2,4 -10,17 -10,22 0,4 0,7 4,7 6,0 20,-19 24,-24 7,-11 15,-22 22,-32l0 -1 1 -1c7,-9 15,-18 23,-27 5,-5 9,-11 14,-16 11,-11 27,-24 42,-24 9,0 15,4 18,13l5 -10 22 0 -52 103c-2,4 -4,9 -4,14 0,3 0,6 3,6 6,0 21,-20 25,-25 7,-11 15,-22 22,-33l4 -6 0 17 -1 1c-8,11 -15,23 -23,34l0 0 0 0c-6,9 -20,26 -30,26 -11,0 -16,-10 -17,-22 -3,4 -7,8 -10,12l0 0c-4,4 -11,10 -17,10 -7,0 -12,-5 -15,-12 -4,-7 -5,-16 -5,-24 0,-11 3,-22 6,-32l-7 8 0 1 -1 1c-8,12 -16,23 -24,35l0 0c-7,9 -19,25 -29,25 -12,0 -16,-11 -16,-25 0,-11 3,-21 9,-30 2,-3 8,-13 8,-17 0,0 0,-1 0,-1 0,0 0,0 -1,0 -10,0 -21,16 -27,25 -3,5 -6,11 -9,16 -5,8 -9,17 -13,26l-1 1 -22 0 46 -91 -34 38c-5,8 -10,15 -16,23 -4,5 -7,10 -11,14 -10,11 -22,21 -35,21 -13,0 -19,-9 -19,-25 0,-13 6,-30 11,-41 1,-3 3,-7 5,-10 1,-2 2,-3 2,-5l-17 21c-8,12 -16,23 -24,35l0 0 0 0c-6,8 -19,25 -29,25 -12,0 -16,-11 -16,-24 0,-11 3,-21 7,-30l0 0 0 0c3,-5 5,-10 8,-15 -1,0 -2,0 -3,0 -3,0 -6,-2 -8,-5 -1,-1 -4,-3 -5,-3 -2,0 -6,5 -8,7 -5,7 -10,16 -14,23 -7,14 -13,27 -20,41l-1 1 -22 0 2 -4c10,-19 20,-39 30,-58 7,-13 13,-26 20,-40 1,-2 6,-14 7,-16 0,0 0,-2 0,-2 0,0 0,0 0,0 -1,0 -4,3 -5,4 -4,4 -7,8 -11,12 -5,7 -11,14 -16,21 -7,10 -14,19 -21,29l0 0 0 0c-5,6 -16,22 -24,22 -3,0 -6,-1 -8,-4 -3,5 -7,10 -10,15 -3,4 -6,8 -9,11 -7,8 -16,15 -26,15 -17,0 -20,-19 -20,-36 0,-12 2,-24 5,-36l-9 13 0 0zm447 44c9,0 30,-35 35,-44 7,-11 26,-45 26,-59 0,-4 -1,-7 -4,-7 -13,0 -30,27 -37,38 -10,16 -24,41 -24,62 0,4 0,9 4,9l0 0zm-168 -73c-6,0 -18,24 -20,29 -5,9 -15,30 -15,41 0,4 1,7 4,7 9,0 18,-18 22,-26 6,-12 13,-29 13,-43 0,-4 -1,-8 -5,-8l0 0zm-216 37c-2,-4 -2,-10 -2,-15 0,-9 2,-17 6,-24 3,-6 8,-13 14,-13 1,0 2,0 3,1 0,-2 0,-4 0,-5 0,-4 -1,-9 -3,-13 -1,-3 -3,-5 -5,-5 -12,0 -28,27 -34,38 -9,16 -22,41 -22,61 0,7 1,13 8,13 7,0 14,-8 19,-14 2,-3 4,-6 6,-9 3,-5 6,-10 10,-15l0 0z"/>
   <path fill="#00AE8F" d="M613 551c1,1 3,3 5,6 2,3 3,7 3,12 0,5 -2,12 -4,18 -2,5 -4,9 -7,12 -3,3 -5,5 -8,6 -3,1 -5,0 -7,-1 -2,-2 -2,-4 -2,-8 0,-3 1,-7 4,-15 3,-7 8,-18 11,-24 3,-6 3,-7 4,-6l0 0zm10 -13c-2,-2 -2,-3 -2,-4 1,-1 2,-4 3,-5 1,-1 2,-2 3,-2 1,0 4,0 8,0 4,0 10,0 16,-1 6,-1 13,-1 18,-2 5,-1 9,-2 11,-3 2,-2 2,-4 2,-6 -1,-2 -2,-4 -3,-5 -2,-1 -3,1 -8,1 -4,1 -11,1 -17,1 -6,0 -11,0 -14,0 -4,0 -6,0 -7,-1 -1,0 -1,-1 1,-4 2,-3 5,-8 13,-23 8,-16 22,-42 34,-63 12,-22 21,-40 28,-52 7,-13 12,-20 14,-26 3,-5 3,-8 2,-10 -1,-2 -3,-3 -5,-4 -2,0 -5,1 -9,3 -4,2 -9,6 -24,20 -15,14 -39,40 -62,64 -23,24 -43,47 -58,62 -14,15 -22,23 -27,27 -5,4 -6,3 -25,2 -19,-1 -56,-3 -85,-4 -29,-1 -51,-2 -63,-2 -12,0 -15,1 -18,2 -3,1 -7,3 -10,5 -3,2 -6,5 -7,7 -1,2 -1,5 2,6 4,1 11,0 37,0 27,0 73,1 100,2 27,1 36,1 40,1 4,1 5,1 1,5 -4,3 -13,9 -27,18 -14,8 -32,19 -51,28 -19,9 -38,15 -58,18 -20,3 -41,3 -56,2 -14,-1 -22,-2 -32,-6 -9,-4 -19,-11 -25,-17 -6,-6 -8,-10 -10,-14 -2,-5 -3,-9 -4,-15 -1,-6 0,-12 2,-19 2,-8 6,-17 12,-26 30,-43 96,-70 146,-62 9,1 18,4 25,7 7,2 11,4 15,6 4,2 6,5 8,6 2,2 4,3 6,3 2,0 4,-3 4,-5 0,-3 0,-6 -3,-9 -3,-3 -7,-4 -15,-7 -8,-3 -19,-6 -37,-9 -58,-8 -157,11 -179,81 -2,7 -3,12 -4,18 0,6 0,13 2,22 2,9 6,19 13,28 34,47 98,47 149,34 14,-4 28,-14 46,-23 18,-8 37,-19 53,-30 16,-10 28,-20 36,-25 8,-5 12,-5 18,-4 6,1 15,3 22,4 7,1 11,2 13,3 2,1 1,2 -1,6 -2,4 -6,11 -9,18 -2,7 -3,13 -4,19 0,6 -1,13 2,19 2,5 7,9 11,12 4,3 8,4 12,5 5,1 10,2 16,0 6,-2 12,-6 17,-11 5,-5 9,-12 11,-18 2,-6 2,-13 0,-19 -1,-6 -4,-12 -8,-16 -4,-5 -8,-9 -10,-11l0 0zm-65 -30c0,0 1,0 4,1 4,0 11,0 17,1 6,0 11,0 14,0 3,0 5,0 6,-1 1,-1 2,-2 7,-10 5,-8 15,-24 24,-39 9,-15 18,-29 26,-42 8,-13 17,-26 22,-35 5,-8 8,-12 9,-14 1,-2 0,-2 -1,-1 -1,1 -3,3 -8,9 -5,6 -15,16 -26,29 -11,12 -24,26 -40,43 -16,17 -35,36 -44,46 -9,9 -8,9 -8,9 0,0 -1,1 -1,2 0,1 0,2 0,2z"/>
   <path id="гирька.cdr" fill="#FEFEFE" d="M1260 778c2,2 4,3 6,5 2,2 4,4 5,6 2,2 3,4 5,6 1,2 3,5 4,7 1,2 2,5 3,7 1,3 2,5 2,8 1,3 1,5 1,8 0,3 0,5 0,8 0,5 -1,10 -2,15 -1,5 -3,9 -5,14 -2,4 -4,9 -7,13 -3,4 -6,8 -9,11 -4,3 -7,6 -11,9 -4,3 -9,5 -13,7 -5,2 -9,3 -15,4 -5,1 -10,2 -16,2 -5,0 -11,-1 -16,-2 -5,-1 -10,-2 -15,-4 -5,-2 -9,-4 -13,-7 -4,-3 -8,-6 -11,-9 -4,-3 -7,-7 -9,-11 -3,-4 -5,-8 -7,-13 -2,-4 -3,-9 -5,-14 -1,-5 -2,-10 -2,-15 0,-3 0,-6 1,-9 0,-3 1,-6 2,-9 1,-3 2,-6 3,-8 1,-3 2,-5 4,-8 1,-3 3,-5 4,-7 2,-2 3,-5 5,-7 2,-2 4,-4 6,-6 2,-2 4,-4 7,-5 0,0 0,-1 0,-1 0,0 0,-1 0,-1 0,0 0,-1 0,-1 0,0 0,-1 0,-1 0,0 0,-1 0,-1 0,0 0,-1 0,-1 0,0 0,-1 0,-1 0,0 0,-1 0,-1 0,-3 0,-6 1,-9 1,-3 2,-6 3,-8 1,-3 3,-5 5,-8 2,-2 4,-5 6,-7 2,-2 5,-4 7,-5 3,-2 6,-3 9,-4 3,-1 6,-2 9,-3 3,-1 7,-1 10,-1 3,0 7,0 10,1 3,1 6,1 9,3 3,1 6,3 9,4 3,2 5,3 7,5 2,2 4,4 6,7 2,2 3,5 5,8 1,3 2,5 3,8 1,3 1,6 1,9 0,1 0,1 0,1 0,1 0,1 0,1 0,1 0,1 0,1 0,0 0,1 0,1 0,0 0,1 0,1 0,0 0,1 0,1 0,0 0,1 0,1 0,0 0,1 0,1l0 0zm-51 -18c1,0 3,0 4,0 1,0 3,0 4,0 1,0 3,0 4,1 1,0 3,0 4,1 1,0 3,1 4,1 1,0 3,1 4,1 1,0 2,1 4,1 1,0 2,1 4,1 0,-2 -1,-3 -1,-5 -1,-2 -1,-3 -2,-5 -1,-1 -2,-3 -3,-4 -1,-1 -2,-3 -4,-4 -1,-1 -3,-2 -4,-3 -1,-1 -3,-2 -5,-2 -2,-1 -3,-1 -5,-1 -2,0 -4,0 -5,0 -2,0 -4,0 -5,0 -2,0 -3,1 -5,1 -2,1 -3,1 -5,2 -1,1 -3,2 -4,3 -1,1 -2,2 -4,3 -1,1 -2,3 -3,4 -1,1 -2,3 -2,4 -1,2 -1,3 -1,5 1,0 2,-1 3,-1 1,0 2,-1 3,-1 1,0 2,-1 3,-1 1,0 2,-1 3,-1 1,0 2,0 4,-1 1,0 2,0 4,0 1,0 2,0 4,0 1,0 2,0 4,0l0 0zm38 83c0,-6 2,-25 10,-25 3,0 4,3 4,9 0,6 -2,25 -10,25 -3,0 -4,-3 -4,-9zm21 -15c0,-8 -2,-14 -10,-14 -13,0 -18,16 -18,27 0,8 2,14 10,14 13,0 18,-16 18,-27zm-44 6c4,0 5,3 5,6 0,5 -3,12 -6,12 -3,0 -4,-3 -4,-11 0,-1 0,-3 0,-5 2,-1 3,-2 5,-2l0 0zm7 -21c-12,0 -19,16 -19,29 0,7 3,14 10,14 9,0 14,-8 14,-15 0,-5 -3,-10 -10,-10 -2,0 -5,1 -7,3 1,-8 5,-17 10,-17 3,0 4,2 3,6 4,1 5,-3 5,-4 0,-3 -2,-5 -7,-5l0 0zm-26 9c4,0 5,-3 5,-6 0,-1 0,-2 0,-2 -5,2 -12,2 -17,1l-4 18c0,1 2,2 2,2 2,0 3,-1 4,-1 4,0 6,3 6,7 0,7 -3,11 -7,11 -3,0 -5,-2 -5,-5 0,-3 2,-5 5,-4 0,-3 -2,-4 -3,-4 -5,0 -7,4 -7,8 0,5 4,9 11,9 8,0 13,-7 13,-15 0,-5 -3,-10 -11,-10 -2,0 -3,0 -5,1l2 -10c3,1 7,1 10,1l0 0zm-20 -7c0,-1 -1,-1 -2,-1 -2,1 -4,1 -5,1 -3,0 -6,-1 -10,-1 -4,0 -7,3 -5,8 1,-1 4,-2 6,-2 4,0 6,1 8,1 -3,4 -6,7 -10,10 0,1 0,2 0,3 6,-1 7,3 7,6 0,7 -3,11 -7,11 -3,0 -5,-2 -5,-5 0,-3 2,-5 5,-4 0,-3 -2,-4 -3,-4 -5,0 -7,4 -7,8 0,5 4,9 11,9 8,0 13,-7 13,-15 0,-4 -2,-8 -9,-9 5,-5 11,-11 13,-17l0 0z"/>
   <path fill="#393185" d="M944 751c1,-1 3,-3 4,-4 6,-5 13,-10 20,-13 23,-10 43,-3 57,16 3,4 5,8 7,12 11,29 -2,63 -18,88 -15,23 -45,55 -74,55l-1 0 -1 0c-4,-1 -8,-3 -12,-5 -13,-6 -24,-15 -34,-25 -17,-18 -31,-41 -37,-65 -5,-20 -5,-44 8,-62 7,-9 16,-15 27,-17 21,-6 40,5 54,20l0 0z"/>
   <path fill="#00AE8F" d="M945 719c5,-3 10,-6 16,-8 32,-13 64,-3 85,24 4,6 8,12 10,18 15,37 0,79 -20,110 -20,31 -56,66 -95,66l-5 0 -5 -2c-5,-2 -10,-4 -15,-6 -15,-7 -29,-18 -41,-30 -37,-38 -67,-111 -31,-159 10,-13 24,-22 40,-26 22,-6 43,0 61,12l0 0zm0 7c3,0 6,3 6,6 0,3 -3,6 -6,6 -3,0 -6,-3 -6,-6 0,-3 3,-6 6,-6z"/>
   <path fill="#FEFEFE" d="M941 897c-74,-24 -112,-142 -49,-159 29,-8 51,24 51,24 1,1 43,-50 77,-7 35,46 -34,142 -79,142l0 0z"/>
   <path fill="#FEFEFE" d="M653 835c0,0 0,1 0,1 0,0 0,1 0,1 0,0 0,0 0,1 0,0 0,0 0,1 0,0 0,0 1,1 0,0 0,0 1,0 0,0 1,0 1,0 0,0 1,0 1,0 0,0 1,0 1,0 0,0 1,0 1,0 0,0 0,0 1,0 0,0 0,0 1,-1 0,0 0,0 1,-1 0,0 0,0 0,-1 0,0 0,-1 0,-1 0,0 0,-1 0,-1 0,0 0,-1 0,-1 0,0 0,-1 0,-1 0,0 0,0 0,-1 0,0 0,0 0,-1 0,0 0,0 -1,-1 0,0 0,0 -1,0 0,0 -1,0 -1,0 0,0 -1,0 -1,0 0,0 -1,0 -1,0 0,0 -1,0 -1,0 0,0 0,0 -1,0 0,0 0,0 -1,1 0,0 0,0 -1,1 0,0 0,0 0,1 0,0 0,1 0,1 0,0 0,1 0,1l0 0zm2 -17c0,0 0,1 0,1 0,0 0,1 0,1 0,0 0,0 0,1 0,0 0,0 0,1 0,0 0,0 1,1 0,0 0,0 1,0 0,0 1,0 1,0 0,0 1,0 1,0 0,0 1,0 1,0 0,0 1,0 1,0 0,0 0,0 1,0 0,0 0,0 1,-1 0,0 0,0 1,-1 0,0 0,0 0,-1 0,0 0,-1 0,-1 0,0 0,-1 0,-1 0,0 0,-1 0,-1 0,0 0,-1 0,-1 0,0 0,0 0,-1 0,0 0,0 0,-1 0,0 0,0 -1,-1 0,0 0,0 -1,0 0,0 -1,0 -1,0 0,0 -1,0 -1,0 0,0 -1,0 -1,0 0,0 -1,0 -1,0 0,0 0,0 -1,0 0,0 0,0 -1,1 0,0 0,0 -1,1 0,0 0,0 0,1 0,0 0,1 0,1 0,0 0,1 0,1l0 0zm13 -76c1,0 2,0 3,0 1,0 2,0 3,1 1,0 2,0 3,1 1,0 2,0 3,1 1,0 2,1 3,1 1,0 2,1 3,1 1,0 2,1 3,1 1,0 2,1 3,1l0 0 0 0 0 0 0 0 0 0 0 0 0 0 0 0 0 0 0 0 0 0 0 0 0 0 0 0 0 0 0 0 -2 -1 -2 -1 -2 -1 -2 -1 -2 -1 -2 -1 -2 -1 -2 -1 0 0 0 0 0 0 0 0 0 0 0 0 0 0 0 0c1,-2 2,-3 2,-4 1,-1 2,-2 2,-3 1,-1 2,-1 3,-2 1,0 2,-1 3,-1 1,0 2,0 3,0 1,0 2,0 3,0 1,0 2,0 3,0 1,0 2,0 4,0l0 0 0 0 0 0 0 0 0 0 0 0 0 0 0 0c0,-4 -2,-7 -4,-10 -2,-3 -5,-5 -9,-7 -4,-2 -8,-3 -12,-4 -5,-1 -9,-1 -14,-1 -5,0 -10,1 -14,2 -4,1 -9,2 -12,4 -4,2 -7,4 -9,7 -2,3 -4,6 -4,9l0 0 0 0 0 0 0 0 0 0 0 0 0 0 0 0c1,0 3,0 4,0 1,0 2,0 3,0 1,0 2,0 3,0 1,0 2,0 3,0 1,0 2,1 3,1 1,0 2,1 3,2 1,1 2,2 2,3 1,1 2,2 2,4l0 0 0 0 0 0 0 0 0 0 0 0 0 0 0 0 -2 1 -2 1 -2 1 -2 1 -2 1 -2 1 -2 1 -2 1 0 0 0 0 0 0 0 0 0 0 0 0 0 0 0 0c0,0 0,1 1,1 0,0 0,0 0,1 0,0 0,0 0,0 0,0 0,0 0,0 0,0 0,0 0,0 0,0 0,0 0,0 0,0 0,0 1,0 0,0 1,0 1,1 1,0 1,-1 2,-1 1,0 1,-1 2,-1 1,0 2,-1 2,-1 1,0 2,-1 2,-1 1,0 2,-1 2,-1 1,0 2,-1 2,-1 1,0 2,-1 2,-1 1,0 2,0 2,-1 0,-1 0,-1 0,-2 0,-1 0,-1 0,-2 0,-1 1,-1 1,-2 0,-1 1,-1 2,-1 1,0 1,-1 2,-1 1,0 1,-1 2,-1 1,0 2,0 3,-1 1,0 2,0 3,0 1,0 2,0 3,0 1,0 2,0 2,0 1,0 1,0 2,1 1,0 1,1 2,1 1,0 1,1 2,1 0,0 1,1 1,1 0,1 1,1 1,2 0,1 0,1 0,2l0 0zm-72 -13c0,0 0,-1 0,-1 0,0 0,0 0,-1 0,0 0,0 0,-1 0,0 0,0 -1,-1 0,0 0,0 -1,0 0,0 0,0 -1,0 0,0 0,0 -1,0 0,0 -1,0 -1,0 0,0 -1,0 -1,0 0,0 -1,0 -1,0 0,0 -1,0 -1,0 0,0 0,0 -1,1 0,0 0,0 -1,1 0,0 0,0 0,1 0,0 0,1 0,1 0,0 0,1 0,1 0,0 0,0 0,1 0,0 0,0 0,1 0,0 0,0 0,1 0,0 0,0 0,1 0,0 0,0 0,0 0,0 0,0 0,0 0,0 0,0 1,0 0,0 0,0 1,0 -1,1 -1,1 -2,2 -1,1 -1,1 -2,2 -1,1 -1,2 -2,2 -1,1 -1,2 -2,3 -1,1 -1,2 -1,3 0,1 -1,2 -1,3 0,1 -1,2 -1,3 0,1 -1,2 -1,3 0,2 0,4 1,5 0,1 1,2 1,3 0,1 1,1 1,2 1,0 1,1 2,0 1,0 1,0 2,-1 1,0 2,-1 3,-1 1,-1 2,-1 3,-2 1,-1 2,-2 3,-3l1 -1 1 -1 1 -1 1 -1 1 -1 1 -1 1 -1 1 -1 1 1 1 1 1 1 1 1 1 1 1 1 1 1 1 1 0 0 0 0 0 0 0 0 0 0 0 0 0 0 0 0 0 0 0 0 0 0 0 0 0 0 0 0 0 0 0 0c-4,4 -8,8 -11,13 -3,5 -6,9 -8,14 -2,5 -4,10 -4,15 -1,5 -1,11 -1,16 0,5 1,11 2,16 1,5 3,10 5,15 2,5 5,10 8,14 3,4 7,9 11,12 -1,0 -2,0 -3,0 -1,0 -2,0 -3,1 -1,0 -2,1 -3,1 -1,0 -2,1 -2,2 -1,1 -1,1 -2,2 -1,1 -1,2 -1,2 0,1 -1,2 -1,3 0,1 0,2 0,3 0,1 0,2 0,3 0,1 0,2 1,3 0,1 1,2 1,2 1,1 1,1 2,2 1,1 1,1 2,2 1,0 2,1 2,1 1,0 2,1 3,1 1,0 2,0 3,0 1,0 2,0 4,0 1,0 2,-1 3,-1 1,-1 2,-1 3,-2 1,-1 2,-2 2,-2 1,-1 1,-2 1,-3 0,-1 1,-2 1,-3 0,-1 0,-2 0,-3 0,-1 -1,-2 -1,-3 3,2 6,3 9,5 3,1 6,3 10,3 3,1 7,2 10,2 3,0 7,1 10,1 3,0 7,0 10,-1 3,-1 7,-1 10,-2 3,-1 6,-2 10,-4 3,-1 6,-3 9,-5 0,1 -1,2 -1,3 0,1 0,2 0,3 0,1 0,2 1,3 0,1 1,2 1,3 1,1 1,2 2,2 1,1 2,1 3,2 1,1 2,1 3,1 1,0 2,0 3,0 1,0 2,0 3,0 1,0 2,0 3,-1 1,0 2,-1 2,-1 1,0 1,-1 2,-2 1,-1 1,-1 2,-2 1,-1 1,-1 1,-2 0,-1 1,-2 1,-3 0,-1 0,-2 0,-3 0,-1 0,-2 0,-3 0,-1 -1,-2 -1,-3 0,-1 -1,-2 -2,-2 -1,-1 -1,-1 -2,-2 -1,-1 -2,-1 -2,-2 -1,0 -2,-1 -3,-1 -1,0 -2,0 -3,-1 -1,0 -2,0 -3,0 4,-4 8,-9 11,-13 3,-5 6,-10 8,-15 2,-5 4,-11 4,-16 1,-5 1,-11 1,-17 0,-6 -1,-11 -2,-16 -1,-5 -3,-11 -6,-16 -3,-5 -6,-10 -9,-14 -4,-4 -8,-9 -13,-12l0 0 0 0 0 0 0 0 0 0 0 0 0 0 0 0 1 1 1 1 1 1 1 1 1 1 1 1 1 1 1 1c1,1 2,2 3,3 1,1 2,2 3,2 1,1 2,1 3,1 1,0 2,1 2,1 1,0 1,0 2,0 1,0 1,-1 1,-2 0,-1 1,-2 1,-3 0,-1 1,-3 1,-5 0,-1 -1,-3 -1,-4 0,-1 -1,-3 -1,-4 0,-1 -1,-2 -2,-4 -1,-1 -1,-2 -2,-3 -1,-1 -1,-2 -2,-3 -1,-1 -2,-2 -2,-3 -1,-1 -2,-2 -3,-3 -1,-1 -2,-2 -3,-2 0,0 0,0 0,0 0,0 0,0 0,0 0,0 0,0 0,0 0,0 0,0 0,0 0,0 0,0 0,0 0,0 0,0 0,0 0,0 0,0 0,0 0,0 0,0 0,0 0,0 0,-1 0,-1 0,0 0,-1 0,-1 0,0 0,-1 0,-1 0,0 0,0 -1,-1 0,0 0,0 -1,-1 0,0 0,0 -1,0 0,0 -1,0 -1,0 0,0 -1,0 -1,0 0,0 0,0 -1,0 0,0 0,0 -1,0 0,0 0,0 -1,0 0,0 0,0 -1,0 0,0 0,0 0,0 0,0 0,0 0,0 0,0 0,0 0,0 0,0 0,0 0,1 0,0 0,0 0,0 0,0 0,0 0,0 0,0 0,0 0,0 0,0 0,0 0,0 0,0 0,0 0,0 0,0 0,0 0,0 0,0 0,0 0,0 0,0 0,0 0,0 0,-3 -1,-6 -2,-8 -1,-3 -2,-5 -4,-7 -2,-2 -4,-4 -6,-6 -2,-2 -5,-3 -7,-4 -3,-1 -5,-2 -8,-3 -3,-1 -6,-2 -8,-2 -3,-1 -6,-1 -8,-1 -3,0 -5,0 -8,0 -2,0 -4,0 -6,0 -2,0 -4,0 -6,0 -2,0 -4,0 -5,1 -2,0 -3,1 -5,1 -2,0 -3,1 -5,1 -2,1 -3,1 -5,2 -1,1 -3,1 -4,2 -1,1 -3,2 -4,3 -1,1 -2,1 -2,2 -1,1 -2,1 -2,2 -1,1 -1,2 -2,2 -1,1 -1,2 -2,3 -1,1 -1,2 -2,3 -1,1 -1,2 -1,3 0,1 -1,2 -1,3 0,1 0,2 0,4 0,0 -1,0 -1,1 0,0 -1,0 -1,1 0,0 -1,0 -1,1 0,0 -1,0 -1,1 0,0 -1,0 -1,1 0,0 -1,0 -1,1 0,0 -1,0 -1,1 0,0 -1,0 -1,1l0 0zm14 100c2,-2 4,-5 7,-9 2,-4 5,-7 5,-9 0,-1 0,-3 -1,-4 -1,-1 -1,-2 -2,-2 1,-2 3,-2 5,-2 2,0 3,0 3,1 1,1 1,2 1,4 0,2 -11,18 -12,19 1,0 0,0 1,0 1,0 2,0 3,0 1,0 2,0 4,0 2,0 3,0 4,0l5 -21c0,-1 1,-2 2,-3 1,-1 2,-1 3,-1 1,0 2,0 3,1l-5 23c1,0 2,-1 2,-1 1,2 1,4 0,5 -1,1 -2,2 -4,2l-2 8c0,1 -1,2 -2,3 -1,1 -2,1 -3,1 -1,0 -2,0 -3,-1l2 -11c-1,0 -1,0 -3,0 -1,0 -2,0 -2,0 0,0 -1,0 -2,0 -1,0 -2,0 -3,0 -1,0 -2,0 -3,0 -1,-1 -3,-2 -4,-4l0 0zm85 -18c-1,-2 -1,-4 1,-5 1,-2 3,-2 5,-2 2,0 4,0 5,0 2,0 3,1 4,1 1,0 3,0 4,0 1,0 3,0 4,-1 0,0 1,1 1,1 0,1 0,1 0,1 -3,3 -5,5 -7,8 -2,3 -4,6 -5,9 -1,3 -2,5 -2,8 -1,2 -1,5 -1,7 0,1 0,2 -1,2 -1,1 -2,1 -3,1 -1,0 -2,0 -3,-1 0,-2 0,-5 1,-7 1,-2 1,-5 2,-7 1,-2 2,-4 3,-7 1,-2 3,-4 4,-6 1,-2 3,-3 4,-5 -2,0 -3,0 -5,0 -2,0 -4,0 -5,0 -1,0 -2,0 -3,0 -1,0 -2,1 -3,1l0 0zm-6 -8c-1,-1 -2,-1 -3,-1 -3,3 -6,7 -11,8 -1,1 0,3 1,3 1,0 3,0 4,-1l-6 29c1,0 2,1 2,1 2,0 4,-1 4,-3l8 -36 0 0z"/>
   <path id="ленейка.cdr" fill="#FEFEFE" d="M1401 902c0,-1 0,-2 0,-3 0,-1 0,-2 1,-4 0,-1 1,-2 1,-3 1,-1 1,-2 2,-3 1,-1 2,-2 2,-3 1,-1 2,-2 3,-2 1,-1 2,-1 3,-1 1,0 2,0 4,0 0,0 1,0 1,0 0,0 1,0 1,0 0,0 1,0 1,1 0,0 1,1 1,1 0,0 0,1 1,1 0,0 0,1 0,1 0,0 0,1 0,1 0,0 0,1 0,1 0,0 0,1 0,1 0,0 0,1 -1,1 0,0 0,1 -1,1 0,0 -1,0 -1,1 0,0 -1,0 -1,0 0,0 -1,0 -1,0 0,0 -1,0 -1,0 0,0 -1,0 -1,-1 0,0 0,0 0,-1 0,0 0,0 0,-1 0,0 0,-1 0,-1 0,0 0,-1 0,-1 0,0 0,-1 0,-1 0,0 0,0 0,-1 0,0 0,0 0,-1 0,0 0,0 -1,0 -1,0 -1,0 -1,0 0,0 -1,0 -1,0 0,0 -1,1 -1,1 0,0 -1,1 -1,1 0,0 -1,1 -1,1 0,0 0,1 -1,1 0,0 0,1 -1,1 0,0 0,1 0,1 0,0 0,1 0,1 0,0 0,1 0,1 0,1 0,1 0,2 0,1 0,1 0,2 0,1 0,1 0,2 0,1 0,1 0,1 0,0 0,1 0,1 0,0 0,1 1,1 1,1 1,1 2,1 1,0 1,0 2,0 1,0 1,0 2,0 1,0 2,0 2,-1 1,0 2,-1 2,-1 1,0 1,-1 2,-1 1,0 1,-1 2,-1 1,0 1,-1 1,-1 0,0 0,0 0,0 0,0 0,0 0,0 0,0 0,0 0,0 0,0 0,0 0,0 0,0 0,0 0,0 0,0 0,0 0,0 0,0 0,0 0,0 0,0 0,0 0,0 0,0 0,0 0,0 0,0 0,0 0,0 0,0 0,0 0,0 0,0 0,0 0,0 0,0 0,0 0,0 0,0 0,0 0,0 0,0 0,0 0,0 0,0 0,0 0,0l0 0 0 0 0 0 0 0 0 0 0 0 0 0 0 0c0,0 0,0 0,0 0,0 0,0 0,0 0,0 0,0 0,0 0,0 0,0 0,0 0,0 0,0 0,0 0,0 0,0 0,0 0,0 0,0 0,0 0,0 0,0 0,0 0,0 0,0 0,0 0,0 0,0 0,0 0,0 0,0 0,0 0,0 0,0 0,0 0,0 0,0 0,0 0,0 0,0 0,0 0,0 0,0 0,0 0,0 0,0 1,0 1,0 1,-1 2,-2 1,-1 1,-1 1,-2 0,-1 1,-2 1,-3 0,-1 1,-2 1,-3 0,-1 1,-2 1,-3 0,-1 1,-2 1,-3 0,-1 1,-2 1,-3 0,-1 0,-2 1,-2 0,0 -1,0 -1,0 0,0 -1,0 -1,0 0,0 -1,0 -1,0 0,0 -1,0 -1,0 0,0 -1,0 -1,0 0,0 -1,0 -1,0 0,0 -1,0 -1,1 0,0 0,0 -1,1 0,0 -1,-1 -1,-1 0,0 0,-1 0,-1 0,0 0,-1 0,-1 0,0 0,-1 0,-1 0,0 1,-1 1,-1 0,0 1,-1 1,-1 1,0 1,0 2,-1 1,0 1,0 2,0 0,0 1,0 1,0 0,0 1,0 1,0 0,0 1,0 1,0 0,0 1,0 1,0 0,0 1,0 1,0 0,0 1,0 1,0 0,0 1,0 1,0 0,0 1,0 1,0l0 3 0 3 0 3 0 3 0 3 0 3 0 3 0 3 1 -2 1 -2 1 -2 1 -2 1 -2 1 -2 1 -2 1 -2c0,0 0,-1 1,-1 0,0 0,-1 1,-1 0,0 0,-1 1,-1 0,0 0,0 1,-1 0,0 1,0 1,0 0,0 1,0 1,0 0,0 1,0 1,0 0,0 1,0 1,0l0 0 0 0 0 0 0 0 0 0 0 0 0 0 0 0 0 2 0 2 0 2 0 2 0 2 0 2 0 2 0 2c0,0 0,1 0,1 0,0 0,1 0,1 0,0 0,1 0,1 0,0 0,0 0,1 0,0 0,0 1,0 0,0 0,0 1,0 0,0 1,0 1,0 0,0 1,0 1,0 0,0 0,0 1,0 0,0 0,0 1,0 0,0 0,0 1,0 0,0 0,0 1,0 0,0 0,0 1,0 0,0 0,0 1,0 0,0 0,0 0,0 0,0 0,0 0,0 0,0 0,0 0,0 0,0 0,0 0,0 0,0 0,0 0,0 0,0 0,0 0,0 0,0 0,0 0,0 0,0 0,0 0,0 0,0 0,0 0,0 0,0 0,0 0,0 0,0 -1,1 -1,1 0,0 -1,1 -1,1 -1,0 -1,1 -2,1 -1,0 -1,1 -2,1 -1,0 -1,1 -2,1 -1,0 -1,0 -2,0 -1,0 -1,0 -2,0 -1,0 -1,0 -2,-1 0,0 -1,-1 -1,-1 0,0 -1,-1 -1,-1 0,0 0,-1 0,-2 0,-1 0,-1 0,-2 0,-1 0,-1 0,-2 0,-1 0,-1 0,-2 0,-1 0,-1 0,-2 0,-1 0,-1 0,-1l0 0 0 0 0 0 0 0 0 0 0 0 0 0 0 0 0 0 0 0 0 0 0 0 0 0 0 0 0 0 0 0 -1 2 -1 2 -1 2 -1 2 -1 2 -1 2 -1 2 -1 2c0,0 -1,0 -1,0 0,0 -1,0 -1,0 0,0 -1,0 -1,0 0,0 0,0 -1,0 0,0 0,0 -1,0 0,0 0,0 0,-1 0,0 0,0 0,-1 0,0 0,-1 0,-1l0 -2 0 -2 0 -2 0 -2 0 -2 0 -2 0 -2 0 -2c0,0 0,0 0,-1 0,0 0,0 0,-1 0,0 0,0 0,0 0,0 0,0 0,0 0,0 0,0 0,0 0,0 0,0 0,0 0,0 0,0 0,1 0,0 0,1 0,1 0,0 0,1 0,1 0,0 0,1 0,1 0,0 0,1 0,1 0,0 0,0 0,1 0,0 0,0 0,1 0,0 0,0 0,1 0,0 0,0 0,1 0,0 0,1 0,1 0,0 0,1 -1,1 0,0 -1,1 -1,2 0,1 -1,1 -1,2 0,1 -1,1 -1,2 0,1 -1,1 -1,1 0,0 -1,1 -1,1 -1,0 -1,1 -2,1 -1,0 -1,0 -2,0 0,0 0,0 -1,0 0,0 0,0 -1,0 0,0 0,0 -1,-1 0,0 0,0 0,-1 0,0 0,0 0,-1 0,0 0,0 0,-1 0,0 0,0 0,-1 0,0 0,0 0,-1 -1,1 -1,1 -2,1 -1,0 -2,1 -2,1 -1,0 -2,1 -3,1 -1,0 -2,1 -3,1 -1,0 -2,0 -3,0 -1,0 -2,0 -3,0 -1,0 -2,-1 -2,-1 -1,0 -1,-1 -2,-2 0,0 0,-1 -1,-1 0,0 0,-1 0,-1 0,0 0,-1 0,-1 0,0 0,-1 0,-1 0,0 0,-1 0,-1 0,0 0,-1 0,-1 0,0 0,-1 0,-1 0,0 0,-1 0,-1l0 0zm2 -39c0,-1 0,-1 0,-2 0,-1 0,-1 0,-2 0,-1 0,-1 1,-1 0,0 1,-1 1,-1 0,0 1,-1 1,-1 0,0 1,-1 1,-1 0,0 1,0 2,0 1,0 1,0 2,0 0,0 1,0 1,0 0,0 0,0 1,0 0,0 0,0 1,0 0,0 0,0 0,1 0,0 0,0 0,1 0,0 0,0 0,1 0,0 0,1 0,1 0,0 0,1 0,1 -1,0 -2,0 -2,0 -1,0 -1,0 -2,1 0,0 -1,1 -1,1 0,1 0,1 0,2 0,1 0,1 0,2 0,1 0,1 1,2 0,1 1,1 1,1 0,0 1,1 2,1 1,0 1,0 2,0 1,0 1,0 2,0 0,0 1,0 1,-1 0,0 1,-1 1,-1 0,0 1,-1 1,-1 0,0 0,-1 1,-2 0,-1 0,-1 0,-2 0,-1 0,-1 0,-2 0,-1 0,-2 0,-2 0,-1 0,-1 0,-2 0,-1 0,-1 0,-2 0,-1 0,-1 -1,-1 0,0 -1,-1 -1,-1 0,0 -1,-1 -2,-1 -1,0 -1,0 -2,0 -1,0 -2,0 -2,0 0,0 0,0 -1,0 0,0 0,0 0,0 0,0 0,0 0,0 0,0 0,0 0,0 0,0 0,0 0,0 0,0 0,0 0,0 0,0 0,0 0,0 0,0 0,0 0,0 0,0 0,0 0,0 0,0 0,0 0,0 0,0 0,0 0,0 0,0 0,0 0,0 0,0 0,0 0,0 0,0 0,0 0,0 0,0 0,0 0,0 0,0 0,0 0,0l0 -2 0 -2 0 -2 0 -2 0 -2 0 -2 0 -2 0 -2c1,0 1,0 2,0 1,0 2,0 2,0 1,0 2,0 2,0 1,0 2,0 2,0 1,0 2,0 2,0 1,0 2,0 2,0 1,0 2,0 2,0 1,0 1,0 2,-1 0,1 0,1 0,2 0,1 0,1 0,2 0,1 0,1 0,1 0,0 0,1 0,1 0,0 0,1 -1,1 0,0 -1,1 -1,1 0,0 -1,0 -1,1 -1,0 -1,0 -2,0 0,0 -1,0 -1,0 0,0 -1,0 -1,0 0,0 -1,0 -1,0 0,0 -1,0 -1,0 0,0 -1,0 -1,0 0,0 -1,0 -1,0 0,0 -1,0 -1,0 0,0 -1,0 -1,0l0 1 0 1 0 1 0 1 0 1 0 1 0 1 0 1c1,0 1,0 2,-1 1,0 1,0 2,0 1,0 1,0 2,0 1,0 1,0 2,0 1,0 1,0 2,1 1,0 1,1 2,1 1,0 1,1 2,1 0,0 1,1 1,1 0,1 1,1 1,2 0,1 0,2 1,2 0,1 0,2 0,3 0,1 0,2 0,3 0,1 -1,2 -1,3 0,1 -1,2 -1,2 0,1 -1,1 -2,2 -1,1 -1,1 -2,2 0,0 -1,1 -1,1 0,0 -1,1 -1,1 -1,0 -1,0 -2,1 -1,0 -1,0 -2,0 -1,0 -1,0 -2,0 -1,0 -1,0 -2,0 -1,0 -1,0 -2,0 -1,0 -1,0 -2,0 -1,0 -1,0 -1,-1 0,0 -1,0 -1,-1 0,0 -1,-1 -1,-1 0,0 -1,-1 -1,-1 0,0 -1,-1 -1,-1 0,0 0,-1 -1,-1 0,0 0,-1 0,-1 0,-1 0,-1 0,-2l0 0zm26 -136l1 0 1 0 1 0 1 0 1 0 1 0 1 0 1 0 0 1 0 1 0 1 0 1 0 1 0 1 0 1 0 1 -1 0 -1 0 -1 0 -1 0 -1 0 -1 0 -1 0 -1 0 0 -1 0 -1 0 -1 0 -1 0 -1 0 -1 0 -1 0 -1zm13 34l4 0 4 0 4 0 4 0 4 0 4 0 4 0 4 0 0 1 0 1 0 1 0 1 0 1 0 1 0 1 0 1 -4 0 -4 0 -4 0 -4 0 -4 0 -4 0 -4 0 -4 0 0 -1 0 -1 0 -1 0 -1 0 -1 0 -1 0 -1 0 -1zm-26 18l7 0 7 0 7 0 7 0 7 0 7 0 7 0 7 0 0 1 0 1 0 1 0 1 0 1 0 1 0 1 0 1 -7 0 -7 0 -7 0 -7 0 -7 0 -7 0 -7 0 -7 0 0 -1 0 -1 0 -1 0 -1 0 -1 0 -1 0 -1 0 -1zm0 -37l7 0 7 0 7 0 7 0 7 0 7 0 7 0 7 0 0 1 0 1 0 1 0 1 0 1 0 1 0 1 0 1 -7 0 -7 0 -7 0 -7 0 -7 0 -7 0 -7 0 -7 0 0 -1 0 -1 0 -1 0 -1 0 -1 0 -1 0 -1 0 -1zm-25 -17l11 0 11 0 11 0 11 0 11 0 11 0 11 0 11 0c1,0 1,0 1,0 0,0 1,0 1,0 0,0 1,0 1,1 0,0 1,1 1,1 0,0 1,1 1,1 0,0 1,1 1,1 0,0 0,1 0,1 0,0 0,1 0,1l0 25 0 25 0 25 0 25 0 25 0 25 0 25 0 25c0,1 0,1 0,1 0,0 0,1 0,1 0,0 0,1 -1,1 0,0 -1,1 -1,1 0,0 -1,1 -1,1 0,0 -1,1 -1,1 0,0 -1,0 -1,0 0,0 -1,0 -1,0l-11 0 -11 0 -11 0 -11 0 -11 0 -11 0 -11 0 -11 0c-1,0 -1,0 -1,0 0,0 -1,0 -1,0 0,0 -1,0 -1,-1 0,0 -1,-1 -1,-1 0,0 -1,-1 -1,-1 0,0 -1,-1 -1,-1 0,0 0,-1 0,-1 0,0 0,-1 0,-1l0 -25 0 -25 0 -25 0 -25 0 -25 0 -25 0 -25 0 -25c0,-1 0,-1 0,-1 0,0 0,-1 0,-1 0,0 0,-1 1,-1 0,0 1,-1 1,-1 0,0 1,-1 1,-1 0,0 1,-1 1,-1 0,0 1,0 1,0 0,0 1,0 1,0zm73 107c0,-1 -1,-1 -2,-1 -2,1 -4,1 -6,1 -3,0 -6,-1 -11,-1 -4,0 -7,3 -5,8 1,-1 4,-2 6,-2 4,0 6,1 8,1 -3,4 -6,8 -10,11 0,1 0,2 0,3 6,-1 7,3 7,6 0,7 -3,11 -7,11 -3,0 -5,-2 -5,-5 0,-3 2,-5 5,-4 0,-3 -2,-4 -4,-4 -5,0 -7,5 -7,9 0,6 4,9 11,9 8,0 14,-7 14,-16 0,-4 -2,-8 -9,-9 6,-5 12,-11 13,-17l0 0z"/>
   <path fill="#FEFEFE" d="M393 704c-1,0 -2,1 -3,2 -1,1 -2,2 -2,3 0,1 -1,2 -1,3 0,1 0,2 0,3 0,1 1,2 1,3 1,1 1,2 2,2 1,1 2,1 3,1 1,0 2,0 4,0 1,0 2,-1 3,-2 1,-1 1,-2 2,-3 0,-1 1,-2 1,-3 0,-1 0,-2 0,-3 0,-1 -1,-2 -1,-3 -1,-1 -1,-2 -2,-2 -1,-1 -2,-1 -3,-1 -1,0 -2,0 -4,0l0 0zm26 197c0,1 1,3 1,4 1,1 1,3 2,4 1,1 2,2 3,4 1,1 2,2 3,3 1,1 3,2 4,2 1,1 3,1 4,2 2,0 3,1 5,1 2,0 3,0 5,0 4,-1 7,-2 10,-4 3,-2 5,-4 6,-6 2,-3 3,-5 3,-8 1,-3 1,-6 0,-9 0,-3 -1,-6 -3,-8 -1,-3 -3,-5 -5,-7 -2,-2 -5,-3 -8,-4 -3,-1 -7,-1 -11,0 -1,0 -3,1 -4,1 -1,1 -3,1 -4,2 -1,1 -3,2 -4,3 -1,1 -2,2 -3,3 -1,1 -2,3 -2,4 -1,1 -1,3 -2,4 0,2 -1,3 -1,5 0,2 0,4 0,5l0 0zm-99 0c1,4 2,7 4,10 2,3 4,5 6,6 2,2 5,3 8,3 3,1 6,1 9,0 3,0 6,-1 8,-3 3,-1 5,-3 7,-5 2,-2 3,-5 4,-8 1,-3 1,-7 1,-11 -1,-4 -2,-7 -3,-10 -2,-3 -4,-5 -6,-6 -2,-2 -5,-3 -8,-3 -3,-1 -6,-1 -9,0 -3,0 -6,1 -8,3 -3,1 -5,3 -7,6 -2,2 -3,5 -4,8 -1,3 -1,7 0,11l0 0zm93 18c1,1 2,3 4,4 1,1 3,3 4,4 2,1 3,2 5,3 2,1 4,2 6,2 2,1 4,1 6,1 2,0 4,0 6,0 2,0 4,0 6,-1 2,0 4,-1 7,-2 3,-1 5,-3 8,-5 2,-2 4,-4 6,-6 2,-2 3,-5 4,-8 1,-3 2,-6 3,-8 1,-3 1,-6 1,-9 0,-3 -1,-6 -1,-9 -1,-3 -2,-6 -4,-8 -2,-3 -4,-5 -6,-7 -1,-1 -2,-2 -4,-3 -1,-1 -2,-2 -3,-2 -1,-1 -2,-1 -3,-2 -1,0 -2,-1 -3,-1 -1,0 -2,-1 -2,-1 -1,0 -1,0 -2,-1 -1,0 -1,0 -2,-1 0,0 -1,0 -1,-1 1,0 1,-1 2,-1 1,0 1,-1 2,-1 1,0 1,-1 2,-1 1,0 1,-1 2,-1 1,0 1,-1 2,-1 1,0 1,-1 2,-1 1,0 1,-1 2,-1 1,0 1,-1 2,-1 2,-2 3,-3 5,-5 2,-2 3,-3 4,-5 1,-2 3,-4 4,-6 1,-2 2,-4 3,-6 1,-2 2,-4 3,-6 1,-2 1,-4 2,-7 1,-2 1,-5 1,-7 0,-3 0,-5 0,-8 1,0 1,0 2,-1 1,0 1,0 2,-1 1,0 1,0 2,-1 1,0 1,0 1,-1 0,0 1,-1 1,-1 0,0 1,-1 1,-1 0,0 1,-1 1,-2 0,-1 0,-1 1,-2 0,-1 0,-2 0,-2 0,-1 0,-1 0,-2 0,-1 0,-1 -1,-2 0,0 -1,-1 -1,-1 0,0 -1,-1 -1,-1 0,0 -1,-1 -1,-1 0,0 -1,-1 -1,-1 0,0 -1,-1 -1,-1 0,-2 0,-3 0,-5 0,-2 0,-3 0,-5 0,-2 0,-3 0,-5 0,-2 0,-3 0,-5 0,-2 0,-3 0,-5 0,-1 0,-3 0,-4 0,-1 -1,-3 -1,-4 0,-1 -1,-3 -2,-4 -1,-1 -1,-2 -2,-3 -1,-1 -1,-2 -2,-3 -1,-1 -1,-2 -2,-3 -1,-1 -1,-2 -2,-2 -1,-1 -1,-2 -2,-2 -1,-1 -2,-1 -2,-2 -1,-1 -2,-2 -3,-2 -1,-1 -2,-2 -3,-2 -1,0 -1,-1 -1,-1 0,0 -1,-1 -1,-1 0,0 -1,-1 -1,-1 0,0 -1,-1 -1,-1 0,0 -1,-1 -1,-1 0,0 -1,-1 -1,-1 -1,0 -1,-1 -2,-1 -1,0 -1,-1 -2,-1 -1,0 -1,-1 -2,-1 -1,0 -1,-1 -2,-1 -1,0 -1,-1 -2,-1 -1,0 -1,-1 -2,-1 -1,0 -1,-1 -1,-1 0,0 -1,-1 -1,-1 0,0 -1,-1 -1,-1 0,0 0,0 -1,0 -1,-1 -3,-1 -4,-2 -1,0 -3,-1 -4,-1 -1,0 -3,0 -4,0 -1,0 -3,0 -4,0 -1,0 -3,0 -4,1 -1,0 -3,0 -4,1 -1,0 -3,0 -4,0 -1,0 -3,0 -4,0 -1,-1 -2,-2 -2,-3 -1,-1 -2,-2 -3,-3 -1,-1 -2,-2 -3,-3 -1,-1 -2,-2 -3,-2 -1,-1 -2,-1 -3,-1 -1,0 -2,-1 -4,-1 -1,0 -3,0 -4,0 -1,0 -3,1 -5,1 -1,0 -1,1 -2,1 -1,0 -1,1 -2,1 -1,0 -1,1 -2,1 -1,0 -1,1 -2,1 0,0 -1,1 -1,1 0,1 -1,1 -1,2 0,1 0,1 0,2 0,1 0,1 0,2l1 2 1 2 1 2 1 2 1 2 1 2 1 2 1 2c0,1 1,2 2,4 1,2 2,4 3,7 1,3 2,6 4,9 1,3 3,7 4,10 1,3 3,7 4,10 1,3 2,6 4,9 1,3 2,5 3,7 1,2 1,3 1,4 -2,0 -5,0 -8,0 -4,0 -8,0 -13,0 -5,0 -11,0 -17,0 -6,0 -12,0 -18,0 -6,0 -12,0 -18,0 -6,0 -11,0 -16,0 -5,0 -9,0 -12,0 -3,0 -5,0 -6,0 -1,0 -1,0 -2,0 -1,0 -1,0 -2,1 -1,0 -1,1 -1,1 0,0 -1,1 -1,1 0,0 -1,1 -1,2 0,1 0,1 -1,2 0,1 0,1 0,2 0,1 0,1 0,2 0,1 0,1 1,2 0,1 0,1 1,1 0,0 1,1 1,1 0,0 1,1 1,1 0,0 1,1 1,1 1,0 1,0 2,1 1,0 1,0 2,0 1,0 1,0 2,0 0,3 0,6 1,9 0,3 1,6 2,8 1,3 2,5 3,8 1,3 2,5 3,7 1,2 3,5 4,7 2,2 3,4 5,6 2,2 4,4 6,6 2,2 4,4 7,5 0,0 1,0 1,1 0,0 1,0 1,1 0,0 1,0 1,1 0,0 1,0 1,1 0,0 1,0 1,1 0,0 1,0 1,1 0,0 1,0 1,1 0,0 0,0 1,1 -1,0 -1,1 -2,1 -1,0 -1,0 -2,1 -1,0 -1,1 -2,1 -1,0 -2,1 -2,1 -1,0 -2,1 -3,1 -1,0 -2,1 -3,2 -1,1 -2,1 -3,2 -1,1 -2,2 -3,3 -2,2 -4,5 -6,8 -1,3 -3,6 -3,8 -1,3 -1,6 -1,9 0,3 0,6 1,9 1,3 2,6 3,8 1,3 3,5 5,7 2,2 4,4 6,6 2,2 5,3 8,4 4,2 8,2 12,3 4,0 8,0 11,-1 4,-1 7,-3 10,-5 3,-2 6,-5 8,-8 2,-3 4,-6 6,-10 1,-4 2,-7 2,-11 0,-4 0,-8 -2,-12 -1,-4 -3,-9 -6,-13 1,0 2,0 2,0 1,0 2,0 3,0 1,0 2,0 3,0 1,0 2,0 3,0 1,0 2,0 3,0 1,0 2,0 3,0 1,0 2,0 3,0 1,0 2,0 3,0 1,0 2,0 3,0 1,0 2,0 3,0 1,0 2,0 3,0 1,0 2,0 3,0 1,0 2,0 3,0 1,0 2,0 3,0 1,0 2,0 2,0 1,0 2,0 2,0 -1,1 -1,2 -2,2 -1,1 -1,2 -1,2 0,1 -1,2 -1,2 0,1 -1,2 -1,3 0,1 -1,2 -1,3 0,1 -1,2 -1,3 0,1 0,2 -1,3 0,1 0,2 0,4 0,1 0,2 0,3 0,1 0,2 0,3 0,1 0,2 1,3 0,1 1,2 1,3 0,1 1,2 1,3 0,1 1,2 1,3 0,1 1,2 1,3 1,1 1,2 2,2l0 0zm54 -107c3,0 4,2 4,4 0,3 -2,8 -4,8 -2,0 -3,-2 -3,-7 0,-1 0,-2 0,-3 1,-1 2,-1 3,-1l0 0zm5 -14c-8,0 -13,11 -13,20 0,5 2,9 7,9 6,0 10,-6 10,-11 0,-4 -2,-7 -7,-7 -2,0 -3,1 -5,2 1,-6 3,-11 7,-11 2,0 2,2 2,4 3,0 3,-2 3,-3 0,-2 -1,-4 -5,-4l0 0zm-13 1c-1,0 -1,-1 -2,0 -2,2 -4,5 -8,6 -1,1 0,2 1,2 1,0 2,0 3,-1l-4 21c0,0 1,0 2,0 1,0 3,-1 3,-2l5 -26 0 0zm-26 19c0,-4 1,-17 7,-17 2,0 3,2 3,6 0,4 -1,17 -7,17 -2,0 -3,-2 -3,-6zm14 -10c0,-5 -1,-9 -7,-9 -9,0 -12,11 -12,19 0,5 1,9 7,9 9,0 12,-11 12,-19zm-30 -2c0,-1 0,-1 0,-2 0,-2 1,-4 3,-4 2,0 3,1 3,3 0,7 -9,11 -12,17 -1,1 -1,3 -1,5 1,0 2,0 3,-1 3,1 6,1 9,1 3,0 6,-3 4,-7 -2,2 -6,2 -12,2 2,-6 14,-9 14,-17 0,-5 -4,-7 -7,-7 -3,0 -7,2 -7,5 0,3 2,4 4,3l0 0zm-16 18c0,1 1,3 2,3 1,0 3,-1 3,-3 0,-1 -1,-3 -2,-3 -1,0 -3,1 -3,3l0 0zm-19 -8c0,1 1,2 2,2 1,0 1,0 2,0 3,0 4,0 6,0l-2 7c0,0 1,0 2,0 1,0 3,-1 3,-2l1 -5c2,0 3,-2 2,-5 0,0 -1,0 -2,1l3 -16c0,0 -1,0 -2,0 -1,0 -3,1 -3,2l-3 15c-2,0 -3,-1 -6,0 3,-3 7,-10 7,-13 0,-2 -1,-3 -3,-3 -1,0 -2,1 -3,2 1,1 2,2 2,4 0,3 -4,10 -6,13l0 0zm-15 1c0,-4 1,-17 7,-17 2,0 3,2 3,6 0,4 -1,17 -7,17 -2,0 -3,-2 -3,-6zm14 -10c0,-5 -1,-9 -7,-9 -9,0 -12,11 -12,19 0,5 1,9 7,9 9,0 12,-11 12,-19zm-29 17c0,1 1,3 2,3 1,0 3,-1 3,-3 0,-1 -1,-3 -2,-3 -1,0 -3,1 -3,3l0 0zm-15 -6c0,-4 1,-17 7,-17 2,0 3,2 3,6 0,4 -1,17 -7,17 -2,0 -3,-2 -3,-6zm14 -10c0,-5 -1,-9 -7,-9 -9,0 -12,11 -12,19 0,5 1,9 7,9 9,0 12,-11 12,-19zm-30 -2c0,-1 0,-1 0,-2 0,-2 1,-4 3,-4 2,0 3,1 3,3 0,7 -9,11 -12,17 -1,1 -1,3 -1,5 1,0 2,0 3,-1 3,1 6,1 9,1 3,0 6,-3 4,-7 -2,2 -6,2 -12,2 2,-6 14,-9 14,-17 0,-5 -4,-7 -7,-7 -3,0 -7,2 -7,5 0,3 2,4 4,3l0 0z"/>
   <path fill="#00AE8F" d="M367 615l1077 0c4,0 7,4 7,9l0 0c0,5 -3,9 -7,9l-1077 0c-4,0 -7,-4 -7,-9l0 0c0,-5 3,-9 7,-9zm290 4c5,0 8,3 8,6 0,3 -4,6 -8,6 -5,0 -8,-3 -8,-6 0,-3 4,-6 8,-6zm542 0c5,0 8,3 8,6 0,3 -4,6 -8,6 -5,0 -8,-3 -8,-6 0,-3 4,-6 8,-6zm-256 0c5,0 8,3 8,6 0,3 -4,6 -8,6 -5,0 -8,-3 -8,-6 0,-3 4,-6 8,-6zm491 0c5,0 8,3 8,6 0,3 -4,6 -8,6 -5,0 -8,-3 -8,-6 0,-3 4,-6 8,-6zm-1034 0c5,0 8,3 8,6 0,3 -4,6 -8,6 -5,0 -8,-3 -8,-6 0,-3 4,-6 8,-6z"/>
   <path fill="#F5B2B6" d="M491 528c1,2 0,15 -3,25 6,-9 15,-19 17,-20 10,-4 20,9 15,17 -1,2 -11,10 -20,15 11,-3 24,-3 26,-2 10,4 8,20 -1,23 -2,1 -15,0 -25,-3 9,6 19,15 20,17 4,10 -9,20 -17,15 -2,-1 -10,-11 -15,-20 2,11 3,24 2,26 -4,10 -20,8 -22,-1 -1,-2 1,-15 3,-25 -6,9 -15,19 -17,20 -10,4 -20,-9 -15,-17 1,-2 11,-10 20,-15 -11,3 -24,3 -26,2 -10,-4 -8,-20 1,-23 2,-1 15,0 25,3 -9,-6 -19,-15 -20,-17 -4,-10 9,-20 17,-15 2,1 10,11 15,20 -2,-11 -3,-24 -2,-26 4,-10 20,-8 22,1l0 0zm-8 37c-1,1 -2,2 -4,2 -1,0 -3,-1 -4,-2 0,2 0,3 -1,4 -1,1 -2,1 -4,1 1,1 2,2 2,4 0,1 -1,3 -2,4 2,0 3,0 4,1 1,1 1,2 1,4 1,-1 2,-2 4,-2 1,0 3,1 4,2 0,-2 0,-3 1,-4 1,-1 2,-1 4,-1 -1,-1 -2,-2 -2,-4 0,-1 1,-3 2,-4 -2,0 -3,0 -4,-1 -1,-1 -1,-2 -1,-4z"/>
   <path fill="#F5B2B6" d="M1423 423c0,2 0,11 -2,18 4,-7 11,-14 12,-14 7,-3 14,6 11,12 -1,1 -8,7 -14,11 8,-2 17,-2 19,-2 7,3 6,15 -1,16 -2,0 -11,0 -18,-2 7,4 14,11 14,12 3,7 -6,14 -12,11 -1,-1 -7,-8 -11,-14 2,8 2,17 2,19 -3,7 -14,6 -16,-1 0,-2 0,-11 2,-18 -4,7 -11,14 -12,14 -7,3 -14,-6 -11,-12 1,-1 8,-7 14,-11 -8,2 -17,2 -19,2 -7,-3 -6,-15 1,-16 2,0 11,0 18,2 -7,-4 -14,-11 -14,-12 -3,-7 6,-14 12,-11 1,1 7,8 11,14 -2,-8 -2,-17 -2,-19 3,-7 14,-6 16,1zm-6 27c-1,1 -2,2 -3,2 -1,0 -2,-1 -3,-2 0,1 0,2 -1,3 -1,1 -2,1 -3,1 1,1 2,2 2,3 0,1 -1,2 -2,3 1,0 2,0 3,1 1,1 1,2 1,3 1,-1 2,-2 3,-2 1,0 2,1 3,2 0,-1 0,-2 1,-3 1,-1 2,-1 3,-1 -1,-1 -2,-2 -2,-3 0,-1 1,-2 2,-3 -1,0 -2,0 -3,-1 -1,-1 -1,-2 -1,-3z"/>
   <path fill="#FEFEFE" d="M1062 427c1,2 0,12 -3,20 5,-8 12,-16 14,-16 8,-3 16,7 12,14 -1,2 -9,8 -16,13 9,-2 19,-3 21,-2 8,4 6,17 -1,19 -2,1 -12,0 -20,-3 8,5 16,12 16,14 3,8 -7,16 -14,12 -2,-1 -8,-9 -13,-16 2,9 3,20 2,21 -4,8 -16,6 -18,-1 -1,-2 0,-12 3,-20 -5,8 -12,16 -14,16 -8,3 -16,-7 -12,-14 1,-2 9,-8 16,-13 -9,2 -19,3 -21,2 -8,-4 -6,-17 1,-19 2,-1 12,0 20,3 -8,-5 -16,-12 -16,-14 -3,-8 7,-16 14,-12 2,1 8,9 13,16 -2,-9 -3,-20 -2,-21 4,-8 16,-6 18,1zm-7 30c-1,1 -2,2 -3,2 -1,0 -2,-1 -3,-2 0,1 0,3 -1,3 -1,1 -2,1 -3,1 1,1 2,2 2,3 0,1 -1,2 -2,3 1,0 3,0 3,1 1,1 1,2 1,3 1,-1 2,-2 3,-2 1,0 2,1 3,2 0,-1 0,-3 1,-3 1,-1 2,-1 3,-1 -1,-1 -2,-2 -2,-3 0,-1 1,-2 2,-3 -1,0 -3,0 -3,-1 -1,-1 -1,-2 -1,-3z"/>
   <path fill="#F5B2B6" d="M730 433c-2,-1 -5,-4 -9,-7 -5,-3 -11,-6 -16,-7 -5,-1 -9,-2 -13,-2 -4,0 -8,0 -11,1 -3,0 -5,1 -4,3 0,3 2,7 6,13 3,5 8,11 12,15 4,4 6,5 8,5 2,0 3,-1 2,0 0,1 -2,2 -3,5 0,2 1,5 3,8 2,3 6,7 9,11 4,3 8,6 12,7 3,1 6,0 8,-1 2,-1 4,-3 5,-7 1,-3 2,-8 2,-12 0,-4 -1,-6 0,-7 0,-1 2,1 3,0 1,0 1,-2 2,-2 1,0 2,1 5,4 3,3 8,7 12,10 4,2 6,2 8,1 2,-1 5,-3 7,-8 2,-5 3,-13 3,-19 0,-6 -1,-10 -3,-13 -2,-2 -4,-3 -5,-4 -1,-1 -1,-1 0,-2 1,-1 2,-1 2,-5 0,-4 0,-10 -1,-16 -1,-6 -3,-12 -5,-15 -2,-3 -3,-4 -5,-4 -2,1 -5,3 -8,6 -3,3 -7,7 -10,12 -3,4 -5,9 -7,13 -2,4 -3,7 -3,10 0,3 0,5 -1,6 0,1 -1,0 -3,-1 -1,-1 -2,-2 -3,-1 0,1 0,3 0,4 0,1 0,2 -2,1l0 0z"/>
   <path fill="#FFF383" d="M1377 438c0,1 0,6 -1,11 2,-4 6,-8 7,-8 4,-2 8,4 6,7 0,1 -4,4 -8,6 4,-1 10,-1 11,-1 4,2 3,8 0,10 -1,0 -6,0 -10,-1 4,2 8,6 8,7 2,4 -4,8 -7,6 -1,0 -4,-5 -6,-8 1,4 1,10 1,11 -2,4 -8,3 -9,0 0,-1 0,-6 1,-11 -2,4 -6,8 -7,8 -4,2 -8,-4 -6,-7 0,-1 4,-4 8,-6 -4,1 -10,1 -11,1 -4,-2 -3,-8 0,-10 1,0 6,0 10,1 -4,-2 -8,-6 -8,-7 -2,-4 4,-8 7,-6 1,0 4,5 6,8 -1,-4 -1,-10 -1,-11 2,-4 8,-3 9,0zm-3 16c0,1 -1,1 -2,1 -1,0 -1,0 -2,-1 0,1 0,1 0,2 0,0 -1,1 -2,0 1,0 1,1 1,2 0,1 0,1 -1,2 1,0 1,0 2,0 0,0 1,1 0,2 0,-1 1,-1 2,-1 1,0 1,0 2,1 0,-1 0,-1 0,-2 0,0 1,-1 2,0 -1,0 -1,-1 -1,-2 0,-1 0,-1 1,-2 -1,0 -1,0 -2,0 0,0 -1,-1 0,-2z"/>
   <path fill="#FEFEFE" d="M425 540c0,1 0,6 -1,11 2,-4 6,-8 7,-8 4,-2 8,4 6,7 0,1 -4,4 -8,6 4,-1 10,-1 11,-1 4,2 3,8 0,10 -1,0 -6,0 -10,-1 4,2 8,6 8,7 2,4 -4,8 -7,6 -1,0 -4,-5 -6,-8 1,4 1,10 1,11 -2,4 -8,3 -9,0 0,-1 0,-6 1,-11 -2,4 -6,8 -7,8 -4,2 -8,-4 -6,-7 0,-1 4,-4 8,-6 -4,1 -10,1 -11,1 -4,-2 -3,-8 0,-10 1,0 6,0 10,1 -4,-2 -8,-6 -8,-7 -2,-4 4,-8 7,-6 1,0 4,5 6,8 -1,-4 -1,-10 -1,-11 2,-4 8,-3 9,0zm-3 16c0,1 -1,1 -2,1 -1,0 -1,0 -2,-1 0,1 0,1 0,2 0,0 -1,1 -2,0 1,0 1,1 1,2 0,1 0,1 -1,2 1,0 1,0 2,0 0,0 1,1 0,2 0,-1 1,-1 2,-1 1,0 1,0 2,1 0,-1 0,-1 0,-2 0,0 1,-1 2,0 -1,0 -1,-1 -1,-2 0,-1 0,-1 1,-2 -1,0 -1,0 -2,0 0,0 -1,-1 0,-2z"/>
  </g>
 </g>
</svg>
